<svg width="31" height="31" viewBox="0 0 31 31" fill="none" xmlns="http://www.w3.org/2000/svg">
<path d="M12.0873 17.3718C12.0873 17.3718 12.0872 17.3835 12.0757 17.3893L12.093 17.1972C12.093 17.1972 12.174 17.1972 12.0873 17.3718Z" fill="#F8F8F8"/>
<path d="M18.0088 6.8978L7.0166 18.1054L12.8982 24.1022L23.8904 12.8946L18.0088 6.8978ZM20.4528 14.845C20.4528 14.845 20.3101 14.8974 20.2701 14.7635C20.2358 14.6296 20.0531 14.3676 20.2701 14.158C20.2016 14.1056 19.3051 13.5642 18.8083 13.7796C18.7512 13.8087 18.6884 13.8262 18.6256 13.8378C18.5627 13.8436 18.4714 13.8611 18.3572 13.8844C18.3971 13.9542 18.8425 14.6762 19.2822 15.1885L19.4193 15.7999C19.4193 15.7999 19.3964 15.9629 19.3622 16.0327C19.3279 16.1143 18.9282 16.4927 18.9282 16.4927C18.9282 16.4927 18.8939 16.5102 18.8483 16.5102C18.8083 16.5102 18.7569 16.4927 18.7169 16.4228L18.6484 16.1317C18.6484 16.1317 18.6484 15.9454 18.7398 15.829C18.8254 15.7358 18.8654 15.6892 18.8768 15.6776C18.7969 15.6136 17.415 14.682 16.9239 14.1988H16.9182C16.8668 14.2977 15.976 16.0269 15.3764 16.6208V16.6324L16.6669 17.5349C16.6669 17.5349 16.8554 17.6804 16.9182 17.9016L17.0552 18.2684C17.0552 18.2684 17.061 18.2976 17.061 18.3325C17.061 18.3965 17.0438 18.5013 16.9639 18.5828C16.8439 18.7051 16.6327 18.938 16.6155 18.9555H16.6041C16.6041 18.9555 16.5071 18.9496 16.4499 18.8623C16.3814 18.7517 16.3357 18.5363 16.3357 18.5363C16.3357 18.5363 16.3243 18.3907 16.4271 18.2568C16.4271 18.2568 16.4252 18.2549 16.4214 18.251C16.3358 18.216 14.9938 17.7095 14.714 17.4999C14.7026 17.4883 14.6855 17.4883 14.674 17.4883L14.6055 17.4999C14.6569 17.628 15.582 19.7298 15.1423 20.4343L14.8168 20.8593C14.8168 20.8593 14.7711 20.9001 14.7197 20.9001C14.6512 20.9001 14.5598 20.836 14.5027 20.5449C14.5027 20.5449 14.4399 20.3062 14.6398 20.1257C14.8396 19.9452 13.1665 17.5116 12.0759 17.3893C12.0131 17.5058 11.8646 17.6979 11.562 18.0065C11.562 18.0065 11.5791 18.4664 11.4363 18.6935C11.3164 18.8798 10.7911 18.8507 10.557 18.8274C10.5113 18.8216 10.4656 18.7924 10.4428 18.7459C10.3057 18.5072 9.85458 17.6746 9.92882 17.3253C10.0145 16.9294 10.2029 16.7197 10.22 16.7023C10.2086 16.6557 9.66617 15.7824 10.5627 16.2307C10.5627 16.2307 10.5684 16.2307 10.5684 16.2249C10.5741 16.1725 10.6826 15.7707 12.5384 15.0313C12.5384 15.0313 13.3493 14.5364 14.2629 12.9936C15.1766 11.4449 16.6098 10.886 16.6098 10.886C16.6098 10.886 17.3807 10.5366 18.3058 11.0199C18.9339 11.3401 19.3336 11.5788 19.5221 11.7011C19.6363 11.7709 19.7619 11.8059 19.8932 11.7942C20.0588 11.7826 20.2644 11.7244 20.2929 11.5264C20.3386 11.1887 20.4871 11.2644 20.4871 11.2644C20.4871 11.2644 20.8468 11.4216 20.6413 11.6953C20.4357 11.9689 20.3158 12.1261 20.0817 12.1727C19.8418 12.2192 19.4364 12.097 19.2822 12.0155C19.0424 11.8932 17.729 11.0024 17.2151 11.1421C17.1694 11.1538 17.158 11.212 17.198 11.2411C17.3065 11.3285 17.552 11.5439 18.123 12.097C18.123 12.097 18.8311 12.5278 19.5049 12.6442C19.6134 12.6617 19.7162 12.7141 19.7904 12.8015L20.9496 14.1056C20.9496 14.1056 21.0238 14.1755 20.9553 14.321C20.8868 14.4608 20.4528 14.845 20.4528 14.845Z" fill="#F8F8F8"/>
<path d="M29.6062 9.85544L27.5734 7.78275C26.9453 8.54546 26.0088 9.02868 24.9581 9.02868C23.0737 9.02868 21.5491 7.46834 21.5491 5.54704C21.5491 4.48158 22.023 3.52094 22.7654 2.88633L20.7325 0.807822C19.6761 -0.269274 17.963 -0.269274 16.9066 0.807822L0.792297 17.2437C-0.264099 18.3208 -0.264099 20.0675 0.792297 21.1446L2.82515 23.2172C3.45327 22.4487 4.4012 21.9538 5.4576 21.9538C7.34198 21.9538 8.8666 23.5084 8.8666 25.4297C8.8666 26.5126 8.38695 27.4732 7.62749 28.1137L9.66605 30.1922C10.7224 31.2693 12.4298 31.2693 13.4862 30.1922L29.6062 13.7563C30.6626 12.6792 30.6626 10.9325 29.6062 9.85544ZM24.6098 13.8028L13.7888 24.8358C13.2806 25.354 12.4469 25.354 11.9387 24.8358L6.29699 19.0835C5.78878 18.5653 5.78878 17.7153 6.29699 17.1971L17.1179 6.1642C17.6261 5.64603 18.4541 5.64603 18.968 6.1642L24.6098 11.9165C25.118 12.4346 25.118 13.2847 24.6098 13.8028Z" fill="#F8F8F8"/>
<path d="M12.0873 17.3718C12.0873 17.3718 12.0872 17.3835 12.0757 17.3893L12.093 17.1972C12.093 17.1972 12.174 17.1972 12.0873 17.3718Z" fill="#F8F8F8"/>
<path d="M18.0088 6.8978L7.0166 18.1054L12.8982 24.1022L23.8904 12.8946L18.0088 6.8978ZM20.4528 14.845C20.4528 14.845 20.3101 14.8974 20.2701 14.7635C20.2358 14.6296 20.0531 14.3676 20.2701 14.158C20.2016 14.1056 19.3051 13.5642 18.8083 13.7796C18.7512 13.8087 18.6884 13.8262 18.6256 13.8378C18.5627 13.8436 18.4714 13.8611 18.3572 13.8844C18.3971 13.9542 18.8425 14.6762 19.2822 15.1885L19.4193 15.7999C19.4193 15.7999 19.3964 15.9629 19.3622 16.0327C19.3279 16.1143 18.9282 16.4927 18.9282 16.4927C18.9282 16.4927 18.8939 16.5102 18.8483 16.5102C18.8083 16.5102 18.7569 16.4927 18.7169 16.4228L18.6484 16.1317C18.6484 16.1317 18.6484 15.9454 18.7398 15.829C18.8254 15.7358 18.8654 15.6892 18.8768 15.6776C18.7969 15.6136 17.415 14.682 16.9239 14.1988H16.9182C16.8668 14.2977 15.976 16.0269 15.3764 16.6208V16.6324L16.6669 17.5349C16.6669 17.5349 16.8554 17.6804 16.9182 17.9016L17.0552 18.2684C17.0552 18.2684 17.061 18.2976 17.061 18.3325C17.061 18.3965 17.0438 18.5013 16.9639 18.5828C16.8439 18.7051 16.6327 18.938 16.6155 18.9555H16.6041C16.6041 18.9555 16.5071 18.9496 16.4499 18.8623C16.3814 18.7517 16.3357 18.5363 16.3357 18.5363C16.3357 18.5363 16.3243 18.3907 16.4271 18.2568C16.4271 18.2568 16.4252 18.2549 16.4214 18.251C16.3358 18.216 14.9938 17.7095 14.714 17.4999C14.7026 17.4883 14.6855 17.4883 14.674 17.4883L14.6055 17.4999C14.6569 17.628 15.582 19.7298 15.1423 20.4343L14.8168 20.8593C14.8168 20.8593 14.7711 20.9001 14.7197 20.9001C14.6512 20.9001 14.5598 20.836 14.5027 20.5449C14.5027 20.5449 14.4399 20.3062 14.6398 20.1257C14.8396 19.9452 13.1665 17.5116 12.0759 17.3893C12.0131 17.5058 11.8646 17.6979 11.562 18.0065C11.562 18.0065 11.5791 18.4664 11.4363 18.6935C11.3164 18.8798 10.7911 18.8507 10.557 18.8274C10.5113 18.8216 10.4656 18.7924 10.4428 18.7459C10.3057 18.5072 9.85458 17.6746 9.92882 17.3253C10.0145 16.9294 10.2029 16.7197 10.22 16.7023C10.2086 16.6557 9.66617 15.7824 10.5627 16.2307C10.5627 16.2307 10.5684 16.2307 10.5684 16.2249C10.5741 16.1725 10.6826 15.7707 12.5384 15.0313C12.5384 15.0313 13.3493 14.5364 14.2629 12.9936C15.1766 11.4449 16.6098 10.886 16.6098 10.886C16.6098 10.886 17.3807 10.5366 18.3058 11.0199C18.9339 11.3401 19.3336 11.5788 19.5221 11.7011C19.6363 11.7709 19.7619 11.8059 19.8932 11.7942C20.0588 11.7826 20.2644 11.7244 20.2929 11.5264C20.3386 11.1887 20.4871 11.2644 20.4871 11.2644C20.4871 11.2644 20.8468 11.4216 20.6413 11.6953C20.4357 11.9689 20.3158 12.1261 20.0817 12.1727C19.8418 12.2192 19.4364 12.097 19.2822 12.0155C19.0424 11.8932 17.729 11.0024 17.2151 11.1421C17.1694 11.1538 17.158 11.212 17.198 11.2411C17.3065 11.3285 17.552 11.5439 18.123 12.097C18.123 12.097 18.8311 12.5278 19.5049 12.6442C19.6134 12.6617 19.7162 12.7141 19.7904 12.8015L20.9496 14.1056C20.9496 14.1056 21.0238 14.1755 20.9553 14.321C20.8868 14.4608 20.4528 14.845 20.4528 14.845Z" fill="#F8F8F8"/>
<path d="M12.0873 17.3718C12.0873 17.3718 12.0872 17.3835 12.0757 17.3893L12.093 17.1972C12.093 17.1972 12.174 17.1972 12.0873 17.3718Z" fill="#F8F8F8"/>
<path d="M18.0088 6.8978L7.0166 18.1054L12.8982 24.1022L23.8904 12.8946L18.0088 6.8978ZM20.4528 14.845C20.4528 14.845 20.3101 14.8974 20.2701 14.7635C20.2358 14.6296 20.0531 14.3676 20.2701 14.158C20.2016 14.1056 19.3051 13.5642 18.8083 13.7796C18.7512 13.8087 18.6884 13.8262 18.6256 13.8378C18.5627 13.8436 18.4714 13.8611 18.3572 13.8844C18.3971 13.9542 18.8425 14.6762 19.2822 15.1885L19.4193 15.7999C19.4193 15.7999 19.3964 15.9629 19.3622 16.0327C19.3279 16.1143 18.9282 16.4927 18.9282 16.4927C18.9282 16.4927 18.8939 16.5102 18.8483 16.5102C18.8083 16.5102 18.7569 16.4927 18.7169 16.4228L18.6484 16.1317C18.6484 16.1317 18.6484 15.9454 18.7398 15.829C18.8254 15.7358 18.8654 15.6892 18.8768 15.6776C18.7969 15.6136 17.415 14.682 16.9239 14.1988H16.9182C16.8668 14.2977 15.976 16.0269 15.3764 16.6208V16.6324L16.6669 17.5349C16.6669 17.5349 16.8554 17.6804 16.9182 17.9016L17.0552 18.2684C17.0552 18.2684 17.061 18.2976 17.061 18.3325C17.061 18.3965 17.0438 18.5013 16.9639 18.5828C16.8439 18.7051 16.6327 18.938 16.6155 18.9555H16.6041C16.6041 18.9555 16.5071 18.9496 16.4499 18.8623C16.3814 18.7517 16.3357 18.5363 16.3357 18.5363C16.3357 18.5363 16.3243 18.3907 16.4271 18.2568C16.4271 18.2568 16.4252 18.2549 16.4214 18.251C16.3358 18.216 14.9938 17.7095 14.714 17.4999C14.7026 17.4883 14.6855 17.4883 14.674 17.4883L14.6055 17.4999C14.6569 17.628 15.582 19.7298 15.1423 20.4343L14.8168 20.8593C14.8168 20.8593 14.7711 20.9001 14.7197 20.9001C14.6512 20.9001 14.5598 20.836 14.5027 20.5449C14.5027 20.5449 14.4399 20.3062 14.6398 20.1257C14.8396 19.9452 13.1665 17.5116 12.0759 17.3893C12.0131 17.5058 11.8646 17.6979 11.562 18.0065C11.562 18.0065 11.5791 18.4664 11.4363 18.6935C11.3164 18.8798 10.7911 18.8507 10.557 18.8274C10.5113 18.8216 10.4656 18.7924 10.4428 18.7459C10.3057 18.5072 9.85458 17.6746 9.92882 17.3253C10.0145 16.9294 10.2029 16.7197 10.22 16.7023C10.2086 16.6557 9.66617 15.7824 10.5627 16.2307C10.5627 16.2307 10.5684 16.2307 10.5684 16.2249C10.5741 16.1725 10.6826 15.7707 12.5384 15.0313C12.5384 15.0313 13.3493 14.5364 14.2629 12.9936C15.1766 11.4449 16.6098 10.886 16.6098 10.886C16.6098 10.886 17.3807 10.5366 18.3058 11.0199C18.9339 11.3401 19.3336 11.5788 19.5221 11.7011C19.6363 11.7709 19.7619 11.8059 19.8932 11.7942C20.0588 11.7826 20.2644 11.7244 20.2929 11.5264C20.3386 11.1887 20.4871 11.2644 20.4871 11.2644C20.4871 11.2644 20.8468 11.4216 20.6413 11.6953C20.4357 11.9689 20.3158 12.1261 20.0817 12.1727C19.8418 12.2192 19.4364 12.097 19.2822 12.0155C19.0424 11.8932 17.729 11.0024 17.2151 11.1421C17.1694 11.1538 17.158 11.212 17.198 11.2411C17.3065 11.3285 17.552 11.5439 18.123 12.097C18.123 12.097 18.8311 12.5278 19.5049 12.6442C19.6134 12.6617 19.7162 12.7141 19.7904 12.8015L20.9496 14.1056C20.9496 14.1056 21.0238 14.1755 20.9553 14.321C20.8868 14.4608 20.4528 14.845 20.4528 14.845Z" fill="#F8F8F8"/>
</svg>
